<?xml version="1.0" encoding="utf-8"?>
<!-- Generator: Adobe Illustrator 24.3.0, SVG Export Plug-In . SVG Version: 6.00 Build 0)  -->
<svg version="1.1" id="Layer_1" xmlns="http://www.w3.org/2000/svg" xmlns:xlink="http://www.w3.org/1999/xlink" x="0px" y="0px"
	 viewBox="0 0 48.9 18" style="enable-background:new 0 0 48.9 18;" xml:space="preserve">
<style type="text/css">
	.st0{fill:#FFFFFF;}
	.st1{opacity:0.97;}
	.st2{fill:#00B194;}
</style>
<rect x="0.7" y="0.7" class="st0" width="47.5" height="12.9"/>
<g class="st1">
	<g>
		<path d="M30.6,14.2c-0.2,0-0.3-0.2-0.3-0.3V0.5c0-0.2,0.2-0.3,0.3-0.3s0.3,0.2,0.3,0.3v13.3C30.9,14,30.8,14.2,30.6,14.2z"/>
	</g>
	<path d="M47.3,0H1.6C0.7,0,0,0.7,0,1.6v12.1V18h48.9v-4.1c0,0,0,0,0,0V1.6C48.9,0.7,48.2,0,47.3,0 M0.7,1.6c0-0.5,0.4-0.9,0.9-0.9
		h45.7c0.5,0,0.9,0.4,0.9,0.9v12H0.7V1.6z"/>
	<path d="M37,10.4v0.1h0.5v0.4h-0.9V11h1v0.1h-1.2v-0.4h0.9v-0.1h-0.9v-0.1h0.5v-0.1h-0.7v-0.2h1.6v0.2H37z M37.1,9.9
		c0,0,0.1,0,0.1,0c0.1,0,0.1,0,0.2,0c0.1,0,0.1,0,0.2,0c0,0,0,0-0.1,0.1c0,0,0,0.1-0.1,0.1c0,0-0.1,0-0.1,0c-0.1,0-0.1,0-0.2,0
		c-0.1,0-0.1,0-0.2-0.1c0,0-0.1-0.1-0.1-0.1c0,0-0.1,0.1-0.1,0.1c0,0-0.1,0-0.1,0.1c-0.1,0-0.1,0-0.2,0c-0.1,0-0.1,0-0.2,0
		c0,0,0-0.1-0.1-0.1c0,0,0-0.1-0.1-0.1c0.1,0,0.1,0,0.2,0c0.1,0,0.1,0,0.2,0c0,0,0.1,0,0.1,0c0,0,0.1,0,0.1-0.1h-0.5V9.7h1.2v0.1
		L37.1,9.9C37.1,9.9,37.1,9.9,37.1,9.9 M36.5,9.5h0.7v0.1h-0.7V9.5z"/>
	<path d="M38.5,10.3c0,0.1,0,0.1,0.1,0.2c0,0.1,0.1,0.1,0.1,0.1c0.1,0,0.1,0.1,0.2,0.1c0,0-0.1,0-0.1,0.1c0,0,0,0-0.1,0.1
		c0,0-0.1,0-0.1-0.1c0,0-0.1-0.1-0.1-0.1c0,0-0.1-0.1-0.1-0.1c0,0-0.1-0.1-0.1-0.1c0,0,0,0.1-0.1,0.1c0,0-0.1,0.1-0.1,0.1
		c0,0-0.1,0.1-0.1,0.1c0,0-0.1,0.1-0.1,0.1c0,0,0,0-0.1-0.1c0,0-0.1,0-0.1-0.1c0.1,0,0.1-0.1,0.2-0.1c0.1,0,0.1-0.1,0.1-0.1
		c0-0.1,0.1-0.1,0.1-0.2c0-0.1,0-0.1,0-0.2V10h-0.3V9.8h0.9V10h-0.3v0.1C38.5,10.2,38.5,10.2,38.5,10.3 M38.1,9.5h0.5v0.2h-0.5V9.5z
		 M39,11.2v-0.8h-0.3v-0.2H39V9.5h0.2v1.7H39z"/>
	<path d="M39.5,11v-0.2h0.4v-0.3H40v0.3h0.4v-0.3h0.2v0.3H41V11H39.5z M39.6,10.4v-0.2h0.2l0-0.5h-0.2V9.6h1.2v0.2h-0.2l0,0.5h0.2
		v0.2H39.6z M40,10.2h0.4l0-0.5H40L40,10.2z"/>
	<path d="M41.8,10.2c0,0.1,0,0.1,0.1,0.2c0,0.1,0.1,0.1,0.1,0.2c0.1,0.1,0.1,0.1,0.2,0.1c0,0-0.1,0-0.1,0.1c0,0,0,0-0.1,0.1
		c0,0-0.1,0-0.1-0.1c0,0-0.1-0.1-0.1-0.1c0,0-0.1-0.1-0.1-0.1c0,0-0.1-0.1-0.1-0.1c0,0,0,0.1-0.1,0.1c0,0-0.1,0.1-0.1,0.1
		c0,0-0.1,0.1-0.1,0.1c0,0-0.1,0.1-0.1,0.1c0,0,0,0-0.1-0.1c0,0-0.1,0-0.1-0.1c0.1,0,0.1-0.1,0.2-0.2c0.1-0.1,0.1-0.1,0.1-0.2
		c0-0.1,0.1-0.1,0.1-0.2c0-0.1,0-0.2,0-0.2V9.6h0.2v0.4C41.8,10,41.8,10.1,41.8,10.2 M42.4,9.5h0.2v1.7h-0.2V9.5z"/>
	<path d="M43.6,2.3h-8.3c-0.4,0-0.8,0.4-0.8,0.8v8.1c0,0.4,0.4,0.8,0.8,0.8h8.3c0.4,0,0.8-0.4,0.8-0.8V3.1
		C44.4,2.7,44.1,2.3,43.6,2.3 M43.6,11.7h-8.3c-0.3,0-0.5-0.2-0.5-0.5V9.1h9.2v2.2C44.1,11.5,43.9,11.7,43.6,11.7"/>
	<path class="st0" d="M41.4,7.2c-0.2-1.1-0.7-1.7-1.1-2c0.2-0.2,0.4-0.5,0.4-0.8c0-0.7-0.5-1.2-1.2-1.2c-0.7,0-1.2,0.5-1.2,1.2
		c0,0.3,0.1,0.6,0.4,0.8c-0.5,0.3-1,0.9-1.1,2c0,0.2,0,0.3,0,0.5c0,0.1,0,0.3,0,0.4c0,0.2,0.2,0.3,0.3,0.3h3.2
		c0.2,0,0.3-0.1,0.3-0.3c0-0.1,0-0.2,0-0.4C41.4,7.5,41.4,7.4,41.4,7.2"/>
	<path d="M15.8,4.7c-0.2-0.3-0.4-0.5-0.6-0.6c-0.3-0.2-0.5-0.3-0.9-0.3c-0.3-0.1-0.6-0.1-1-0.1h-2.5c0,0-0.1,0-0.1,0
		c0,0,0,0.1,0,0.1v6.6c0,0,0,0.1,0,0.1c0,0,0.1,0,0.1,0h0.9c0,0,0.1,0,0.1,0c0,0,0-0.1,0-0.1V7.9h1.5c0.8,0,1.5-0.2,1.9-0.5
		C15.8,7,16,6.5,16,5.8C16,5.4,15.9,5,15.8,4.7 M13.4,6.9h-1.5V4.8h1.5c0.2,0,0.4,0,0.6,0c0.2,0,0.3,0.1,0.5,0.2
		c0.1,0.1,0.2,0.2,0.3,0.3c0.1,0.1,0.1,0.3,0.1,0.5c0,0.2,0,0.3-0.1,0.5c0,0.1-0.1,0.2-0.2,0.3c-0.1,0.1-0.2,0.2-0.4,0.2
		C13.9,6.8,13.7,6.9,13.4,6.9"/>
	<path d="M21.8,9.5c0,0-0.1,0-0.1,0h-3.9V7.6h3.5c0,0,0.1,0,0.1,0c0,0,0-0.1,0-0.1V6.6c0,0,0-0.1,0-0.1c0,0-0.1,0-0.1,0h-3.5V4.8
		h3.7c0,0,0.1,0,0.1,0c0,0,0-0.1,0-0.1V3.8c0,0,0-0.1,0-0.1c0,0-0.1,0-0.1,0h-4.8c0,0-0.1,0-0.1,0c0,0,0,0.1,0,0.1v6.6
		c0,0,0,0.1,0,0.1c0,0,0.1,0,0.1,0h4.9c0,0,0.1,0,0.1,0c0,0,0-0.1,0-0.1V9.6C21.8,9.6,21.8,9.6,21.8,9.5"/>
	<path d="M27.9,3.7c0,0-0.1,0-0.1,0H27c0,0-0.1,0-0.1,0c0,0,0,0.1,0,0.1v4.7l-3.2-4.8c0,0-0.1-0.1-0.1-0.1h-0.9c0,0-0.1,0-0.1,0
		c0,0,0,0.1,0,0.1v6.6c0,0,0,0.1,0,0.1c0,0,0.1,0,0.1,0h0.8c0,0,0.1,0,0.1,0c0,0,0-0.1,0-0.1V5.7l3.2,4.8c0,0,0.1,0.1,0.1,0.1h0.9
		c0,0,0.1,0,0.1,0c0,0,0-0.1,0-0.1V3.8C28,3.8,27.9,3.8,27.9,3.7"/>
	<path class="st2" d="M6.2,4.3c1.4,0,2.5,1,2.7,2.3C9.3,6.7,9.7,6.8,10,6.9c0-0.1,0-0.1,0-0.1l0,0c-0.1-2-1.8-3.6-3.8-3.6
		c-2,0-3.7,1.6-3.8,3.5c0,0.1,0.1,0.4,0.4,0.6l0,0c0.4,0.2,1,0.4,1.6,0.4c0.5,0,1.2-0.1,1.8-0.5c0.4-0.3,0.8-0.5,1.3-0.5
		c0.2,0,0.3,0,0.5,0c0,0,0.1,0,0.1,0c0,0,0.1,0.1,0.2,0c0-0.1,0-0.1,0-0.1c0-0.1-0.2-0.2-0.2-0.2C7.9,6.3,7.8,6.3,7.7,6.3
		c-0.3-0.1-0.6-0.1-0.9,0C6.5,6.3,6.2,6.4,6,6.5C5.5,6.8,5,6.8,4.7,6.8c-0.5,0-0.8-0.2-1-0.4C3.7,6.3,3.6,6.3,3.6,6.2
		C3.9,5.1,5,4.3,6.2,4.3"/>
	<path d="M8.9,7c0,0.1,0,0.1,0,0.2h0C8.8,8.6,7.6,9.7,6.2,9.7C5,9.7,4.1,9.1,3.7,8C3.4,8,2.8,7.8,2.4,7.5c0,0,0,0,0,0
		c0.2,1.9,1.8,3.3,3.8,3.3c2,0,3.6-1.5,3.8-3.4C9.6,7.2,9.2,7.1,8.9,7"/>
	<path class="st0" d="M6.5,15.6H5.4v-0.5c0,0,0,0,0,0c0,0,0,0,0,0H5.1c0,0,0,0,0,0c0,0,0,0,0,0v0.5H4.2c0,0,0,0,0,0c0,0,0,0,0,0v0.3
		c0,0,0,0,0,0c0,0,0,0,0,0h2.3c0,0,0,0,0,0c0,0,0,0,0,0L6.5,15.6C6.5,15.6,6.5,15.6,6.5,15.6C6.5,15.6,6.5,15.6,6.5,15.6 M6.1,16.2
		C5.9,16.1,5.7,16,5.3,16c-0.3,0-0.5,0-0.7,0.2c-0.2,0.1-0.2,0.2-0.2,0.4c0,0.2,0.1,0.3,0.2,0.4c0.2,0.1,0.4,0.2,0.7,0.2
		c0.3,0,0.5-0.1,0.7-0.2c0.2-0.1,0.2-0.2,0.2-0.4C6.3,16.4,6.2,16.3,6.1,16.2 M5.8,16.8c-0.1,0-0.2,0.1-0.4,0.1
		c-0.2,0-0.3,0-0.4-0.1c-0.1,0-0.1-0.1-0.1-0.2c0-0.1,0-0.1,0.1-0.2c0.1,0,0.2-0.1,0.4-0.1c0.2,0,0.3,0,0.4,0.1
		c0.1,0,0.2,0.1,0.2,0.2C5.9,16.7,5.9,16.7,5.8,16.8 M4.4,14.8h1.5c0,0.1,0,0.2,0,0.3c0,0.1,0,0.2,0,0.3c0,0,0,0,0,0c0,0,0,0,0,0
		l0.3,0c0,0,0,0,0,0c0-0.1,0-0.3,0.1-0.4c0-0.1,0-0.3,0-0.5c0,0,0,0,0,0c0,0,0,0,0,0H4.4c0,0,0,0,0,0c0,0,0,0,0,0L4.4,14.8
		C4.4,14.8,4.4,14.8,4.4,14.8C4.4,14.8,4.4,14.8,4.4,14.8 M6.9,14.8h1.5c0,0.1,0,0.2,0,0.3c0,0.1,0,0.2,0,0.3c0,0,0,0,0,0
		c0,0,0,0,0,0l0.3,0c0,0,0,0,0,0c0-0.1,0-0.3,0.1-0.4c0-0.1,0-0.3,0-0.5c0,0,0,0,0,0c0,0,0,0,0,0H6.9c0,0,0,0,0,0c0,0,0,0,0,0
		L6.9,14.8C6.9,14.8,6.9,14.8,6.9,14.8C6.9,14.8,6.9,14.8,6.9,14.8 M8.6,16.2C8.4,16.1,8.2,16,7.9,16c-0.3,0-0.5,0-0.7,0.2
		c-0.2,0.1-0.2,0.2-0.2,0.4c0,0.2,0.1,0.3,0.2,0.4c0.2,0.1,0.4,0.2,0.7,0.2c0.3,0,0.5-0.1,0.7-0.2c0.2-0.1,0.2-0.2,0.2-0.4
		C8.8,16.4,8.7,16.3,8.6,16.2 M8.3,16.8c-0.1,0-0.2,0.1-0.4,0.1c-0.2,0-0.3,0-0.4-0.1c-0.1,0-0.1-0.1-0.1-0.2c0-0.1,0-0.1,0.1-0.2
		c0.1,0,0.2-0.1,0.4-0.1c0.2,0,0.3,0,0.4,0.1c0.1,0,0.2,0.1,0.2,0.2C8.4,16.7,8.4,16.7,8.3,16.8 M9,15.6H7.9v-0.5c0,0,0,0,0,0
		c0,0,0,0,0,0H7.6c0,0,0,0,0,0c0,0,0,0,0,0v0.5H6.7c0,0,0,0,0,0c0,0,0,0,0,0v0.3c0,0,0,0,0,0c0,0,0,0,0,0H9c0,0,0,0,0,0c0,0,0,0,0,0
		L9,15.6C9,15.6,9,15.6,9,15.6C9,15.6,9,15.6,9,15.6 M9.5,15.6h1.8c0,0,0,0,0,0c0,0,0,0,0,0v-0.3c0,0,0,0,0,0c0,0,0,0,0,0H9.8v-0.7
		c0,0,0,0,0,0c0,0,0,0,0,0H9.5c0,0,0,0,0,0c0,0,0,0,0,0L9.5,15.6C9.5,15.6,9.5,15.6,9.5,15.6C9.5,15.6,9.5,15.6,9.5,15.6 M11.5,15.9
		H9.2c0,0,0,0,0,0c0,0,0,0,0,0v0.3c0,0,0,0,0,0c0,0,0,0,0,0h1v0.9c0,0,0,0,0,0c0,0,0,0,0,0h0.3c0,0,0,0,0,0c0,0,0,0,0,0v-0.9h1
		c0,0,0,0,0,0c0,0,0,0,0,0L11.5,15.9C11.5,15.9,11.5,15.9,11.5,15.9C11.5,15.9,11.5,15.9,11.5,15.9 M13.4,16.1c-0.1,0-0.2,0-0.4,0.1
		c-0.2,0-0.3,0-0.4,0h-0.4v-0.5h0.8c0,0,0,0,0,0c0,0,0,0,0,0v-1.1c0,0,0,0,0,0c0,0,0,0,0,0h-1.2c0,0,0,0,0,0c0,0,0,0,0,0v0.3
		c0,0,0,0,0,0c0,0,0,0,0,0h0.8v0.5h-0.8c0,0,0,0,0,0c0,0,0,0,0,0v1.1c0,0,0,0,0,0c0,0,0,0,0,0c0,0,0.1,0,0.3,0c0.2,0,0.3,0,0.3,0
		c0.2,0,0.3,0,0.5,0c0.2,0,0.3,0,0.4,0c0,0,0,0,0,0L13.4,16.1C13.4,16.1,13.4,16.1,13.4,16.1C13.4,16.1,13.4,16.1,13.4,16.1
		 M13.8,14.4C13.8,14.4,13.8,14.4,13.8,14.4l-0.3,0c0,0,0,0,0,0c0,0,0,0,0,0v2.6c0,0,0,0,0,0c0,0,0,0,0,0h0.3c0,0,0,0,0,0
		c0,0,0,0,0,0L13.8,14.4C13.8,14.4,13.8,14.4,13.8,14.4"/>
	<path class="st0" d="M16.1,15.8v-0.2H17v-0.5h0.2v0.5h1.2v0.2H16.1z M16.6,16.8c-0.2-0.1-0.2-0.2-0.2-0.3c0-0.1,0.1-0.2,0.2-0.3
		C16.8,16,17,16,17.3,16c0.3,0,0.5,0,0.7,0.1c0.2,0.1,0.2,0.2,0.2,0.3c0,0.1-0.1,0.2-0.2,0.3c-0.2,0.1-0.4,0.1-0.7,0.1
		C17,16.9,16.8,16.9,16.6,16.8 M18.2,14.6c0,0.1,0,0.3,0,0.4c0,0.1,0,0.3-0.1,0.4h-0.2c0-0.1,0-0.2,0.1-0.3c0-0.1,0-0.2,0-0.3h-1.6
		v-0.2H18.2z M16.8,16.7c0.1,0,0.3,0.1,0.5,0.1c0.2,0,0.4,0,0.5-0.1c0.1,0,0.2-0.1,0.2-0.2c0-0.1-0.1-0.2-0.2-0.2
		c-0.1,0-0.3-0.1-0.5-0.1c-0.2,0-0.4,0-0.5,0.1c-0.1,0-0.2,0.1-0.2,0.2C16.6,16.5,16.7,16.6,16.8,16.7"/>
	<path class="st0" d="M18.6,15.8v-0.2h0.9v-0.5h0.2v0.5H21v0.2H18.6z M19.1,16.8c-0.2-0.1-0.2-0.2-0.2-0.3c0-0.1,0.1-0.2,0.2-0.3
		c0.2-0.1,0.4-0.1,0.7-0.1c0.3,0,0.5,0,0.7,0.1c0.2,0.1,0.2,0.2,0.2,0.3c0,0.1-0.1,0.2-0.2,0.3c-0.2,0.1-0.4,0.1-0.7,0.1
		C19.5,16.9,19.3,16.9,19.1,16.8 M20.7,14.6c0,0.1,0,0.3,0,0.4c0,0.1,0,0.3-0.1,0.4h-0.2c0-0.1,0-0.2,0.1-0.3c0-0.1,0-0.2,0-0.3
		h-1.6v-0.2H20.7z M19.3,16.7c0.1,0,0.3,0.1,0.5,0.1c0.2,0,0.4,0,0.5-0.1c0.1,0,0.2-0.1,0.2-0.2c0-0.1-0.1-0.2-0.2-0.2
		c-0.1,0-0.3-0.1-0.5-0.1c-0.2,0-0.4,0-0.5,0.1c-0.1,0-0.2,0.1-0.2,0.2C19.1,16.5,19.2,16.6,19.3,16.7"/>
	<path class="st0" d="M22.2,15.4c0,0.1,0.1,0.2,0.1,0.3c0.1,0.1,0.1,0.2,0.2,0.3c0.1,0.1,0.2,0.2,0.3,0.2c0,0-0.1,0-0.1,0.1
		c0,0-0.1,0.1-0.1,0.1c-0.1,0-0.1-0.1-0.2-0.1c-0.1,0-0.1-0.1-0.2-0.2c-0.1-0.1-0.1-0.1-0.2-0.2c0-0.1-0.1-0.1-0.1-0.2
		c0,0.1-0.1,0.1-0.1,0.2c0,0.1-0.1,0.1-0.2,0.2c-0.1,0.1-0.1,0.1-0.2,0.2c-0.1,0.1-0.1,0.1-0.2,0.2c0,0-0.1,0-0.1-0.1
		c0,0-0.1-0.1-0.1-0.1c0.1-0.1,0.2-0.1,0.3-0.2c0.1-0.1,0.2-0.2,0.2-0.3c0.1-0.1,0.1-0.2,0.1-0.3c0-0.1,0-0.2,0-0.4v-0.2h-0.5v-0.2
		h1.3v0.2h-0.6v0.2C22.1,15.2,22.1,15.3,22.2,15.4 M23.1,16.9v-1.4h-0.5v-0.2h0.5v-0.7h0.2v2.3H23.1z"/>
	<path class="st0" d="M24.7,15.1c0,0.1,0.1,0.1,0.1,0.2c0.1,0.1,0.1,0.1,0.2,0.2c0.1,0,0.2,0.1,0.3,0.1c0,0-0.1,0.1-0.1,0.1
		c0,0-0.1,0.1-0.1,0.1c-0.1,0-0.1-0.1-0.2-0.1c-0.1,0-0.1-0.1-0.2-0.1c-0.1,0-0.1-0.1-0.1-0.1c0,0-0.1-0.1-0.1-0.2
		c0,0.1-0.1,0.1-0.1,0.2c0,0.1-0.1,0.1-0.1,0.1c-0.1,0.1-0.1,0.1-0.2,0.1c-0.1,0-0.1,0.1-0.2,0.1c0,0,0,0-0.1-0.1
		c0,0-0.1-0.1-0.1-0.1c0.1,0,0.2-0.1,0.3-0.2c0.1-0.1,0.2-0.1,0.2-0.2c0.1-0.1,0.1-0.1,0.1-0.2c0-0.1,0-0.2,0-0.3v-0.1h-0.5v-0.2
		h1.2v0.2h-0.5v0.1C24.6,15,24.6,15.1,24.7,15.1 M25.5,16.9v-0.6h-1.4v-0.2h1.7v0.8H25.5z M25.7,15.3v0.7h-0.2v-1.4h0.2v0.6h0.4v0.2
		H25.7z"/>
	<path class="st0" d="M27.5,15.7v0.2h0.7v0.5h-1.5v0.2h1.5v0.2h-1.8v-0.6H28v-0.2h-1.5v-0.2h0.7v-0.2h-1v-0.2h2.3v0.2H27.5z
		 M26.5,14.6h1.7v0.7h-1.7V14.6z M28,14.8h-1.3v0.4H28V14.8z"/>
	<path class="st0" d="M30.5,15.4c0,0.1,0.1,0.2,0.1,0.3c0.1,0.1,0.1,0.2,0.2,0.3c0.1,0.1,0.2,0.2,0.3,0.2c0,0-0.1,0-0.1,0.1
		c0,0-0.1,0.1-0.1,0.1c-0.1,0-0.1-0.1-0.2-0.1c-0.1,0-0.1-0.1-0.2-0.2c-0.1-0.1-0.1-0.1-0.2-0.2c0-0.1-0.1-0.1-0.1-0.2
		c0,0.1-0.1,0.1-0.1,0.2c0,0.1-0.1,0.1-0.2,0.2c-0.1,0.1-0.1,0.1-0.2,0.2c-0.1,0.1-0.1,0.1-0.2,0.2c0,0-0.1,0-0.1-0.1
		c0,0-0.1-0.1-0.1-0.1c0.1-0.1,0.2-0.1,0.3-0.2c0.1-0.1,0.2-0.2,0.2-0.3c0.1-0.1,0.1-0.2,0.1-0.3c0-0.1,0-0.2,0-0.4v-0.2h-0.5v-0.2
		H31v0.2h-0.6v0.2C30.5,15.2,30.5,15.3,30.5,15.4 M31.6,14.5v0.9H32v0.2h-0.4v1.2h-0.2v-2.3H31.6z"/>
	<path class="st0" d="M33.8,16v0.8h-0.2V16h-0.6v0.8h-0.2v-0.8h-0.6v-0.2h2.3V16H33.8z M32.6,15.5c-0.2-0.1-0.2-0.2-0.2-0.4
		c0-0.2,0.1-0.3,0.2-0.4c0.2-0.1,0.4-0.2,0.7-0.2c0.3,0,0.5,0.1,0.7,0.2c0.2,0.1,0.2,0.2,0.2,0.4c0,0.1-0.1,0.3-0.2,0.4
		c-0.2,0.1-0.4,0.2-0.7,0.2C33,15.6,32.7,15.6,32.6,15.5 M32.8,15.3c0.1,0.1,0.3,0.1,0.5,0.1c0.2,0,0.3,0,0.5-0.1
		c0.1-0.1,0.2-0.1,0.2-0.2c0-0.1-0.1-0.2-0.2-0.3c-0.1-0.1-0.3-0.1-0.5-0.1c-0.2,0-0.3,0-0.5,0.1c-0.1,0.1-0.2,0.1-0.2,0.3
		C32.6,15.2,32.7,15.3,32.8,15.3"/>
	<path class="st0" d="M34.9,14.8c0.1-0.1,0.3-0.2,0.4-0.2c0.2,0,0.3,0.1,0.4,0.2c0.1,0.1,0.2,0.4,0.2,0.7c0,0.3-0.1,0.5-0.2,0.7
		c-0.1,0.1-0.3,0.2-0.4,0.2c-0.2,0-0.3-0.1-0.4-0.2c-0.1-0.1-0.2-0.4-0.2-0.7C34.7,15.2,34.8,15,34.9,14.8 M35.1,16
		c0.1,0.1,0.2,0.2,0.3,0.2c0.1,0,0.2-0.1,0.3-0.2c0.1-0.1,0.1-0.3,0.1-0.5c0-0.2,0-0.3-0.1-0.5c-0.1-0.1-0.2-0.2-0.3-0.2
		c-0.1,0-0.2,0.1-0.3,0.2C35,15.2,35,15.3,35,15.5C35,15.7,35,15.8,35.1,16 M36.5,14.5h0.2v2.3h-0.2V14.5z"/>
	<path class="st0" d="M37.1,15.9v-0.2h0.6v-0.3c-0.1,0-0.2-0.1-0.3-0.2c-0.1-0.1-0.1-0.1-0.1-0.2c0-0.1,0.1-0.2,0.2-0.3
		c0.2-0.1,0.4-0.1,0.7-0.1c0.3,0,0.5,0,0.7,0.1c0.2,0.1,0.2,0.2,0.2,0.3c0,0.1,0,0.1-0.1,0.2c-0.1,0.1-0.2,0.1-0.3,0.2v0.3h0.6v0.2
		H37.1z M37.6,16.2c0.2-0.1,0.4-0.1,0.7-0.1c0.3,0,0.5,0,0.7,0.1c0.2,0.1,0.2,0.2,0.2,0.3c0,0.1-0.1,0.2-0.2,0.3
		c-0.2,0.1-0.4,0.1-0.7,0.1c-0.3,0-0.5,0-0.7-0.1c-0.2-0.1-0.2-0.2-0.2-0.3C37.4,16.3,37.5,16.2,37.6,16.2 M37.8,16.7
		c0.1,0,0.3,0.1,0.5,0.1c0.2,0,0.4,0,0.5-0.1c0.1,0,0.2-0.1,0.2-0.2c0-0.1-0.1-0.2-0.2-0.2c-0.1,0-0.3-0.1-0.5-0.1
		c-0.2,0-0.4,0-0.5,0.1c-0.1,0-0.2,0.1-0.2,0.2C37.6,16.6,37.7,16.6,37.8,16.7 M37.8,15.2c0.1,0.1,0.3,0.1,0.5,0.1
		c0.2,0,0.3,0,0.5-0.1c0.1,0,0.2-0.1,0.2-0.2c0-0.1-0.1-0.1-0.2-0.2c-0.1-0.1-0.3-0.1-0.5-0.1c-0.2,0-0.3,0-0.5,0.1
		c-0.1,0-0.2,0.1-0.2,0.2C37.7,15,37.7,15.1,37.8,15.2 M38.6,15.4c0,0-0.1,0-0.1,0c-0.1,0-0.1,0-0.2,0c-0.1,0-0.1,0-0.2,0
		c-0.1,0-0.1,0-0.1,0v0.3h0.6V15.4z"/>
	<path class="st0" d="M39.8,15h1.5v0.2h-1.5V15z M40.1,15.5c0.1-0.1,0.3-0.2,0.5-0.2c0.2,0,0.3,0.1,0.5,0.2c0.1,0.1,0.2,0.2,0.2,0.4
		c0,0.1-0.1,0.3-0.2,0.4c-0.1,0.1-0.3,0.2-0.5,0.2c-0.2,0-0.3-0.1-0.5-0.2c-0.1-0.1-0.2-0.2-0.2-0.4C39.9,15.7,39.9,15.6,40.1,15.5
		 M40.2,16.2c0.1,0.1,0.2,0.1,0.3,0.1c0.1,0,0.2,0,0.3-0.1c0.1-0.1,0.1-0.2,0.1-0.3c0-0.1,0-0.2-0.1-0.3c-0.1-0.1-0.2-0.1-0.3-0.1
		c-0.1,0-0.2,0-0.3,0.1c-0.1,0.1-0.1,0.2-0.1,0.3C40.1,16,40.2,16.1,40.2,16.2 M40.1,14.6h0.8v0.2h-0.8V14.6z M41.6,16.9v-1.2h-0.4
		v-0.2h0.4v-1h0.2v2.3H41.6z"/>
	<path class="st0" d="M43.9,15.8c-0.1,0-0.2,0-0.4,0c-0.2,0-0.3,0-0.5,0c-0.1,0-0.2,0-0.4,0c-0.2,0-0.2,0-0.2,0v-0.7h0.9v-0.3h-0.9
		v-0.2h1.2v0.7h-0.9v0.4l0.4,0c0.1,0,0.3,0,0.5,0c0.2,0,0.3,0,0.4-0.1V15.8z M44,16.9v-0.6h-1.4v-0.2h1.7v0.8H44z M44.2,15.3V16H44
		v-1.4h0.2v0.6h0.3v0.2H44.2z"/>
</g>
</svg>
