<svg xmlns="http://www.w3.org/2000/svg" width="20" height="20" viewBox="0 0 20 20">
  <g id="ic_house_warning" transform="translate(-250 -253)">
    <g id="그룹_1745" data-name="그룹 1745" transform="translate(-211.654 -227.823)">
      <path id="패스_600" data-name="패스 600" d="M470.817,484.11l-6.835,5.316a1.368,1.368,0,0,0-.528,1.079v8.9a1.367,1.367,0,0,0,1.367,1.367h13.67a1.367,1.367,0,0,0,1.367-1.367h0v-8.9a1.371,1.371,0,0,0-.528-1.079l-6.835-5.316A1.369,1.369,0,0,0,470.817,484.11Z" fill="#ffe14a"/>
      <path id="패스_615" data-name="패스 615" d="M469.954,492.087a1.135,1.135,0,0,0-1.135-1.135h0a1.135,1.135,0,1,0,1.139,1.135Z" fill="#373e54"/>
      <path id="패스_616" data-name="패스 616" d="M475.632,492.082a1.135,1.135,0,0,0-2.27.005v.005a1.135,1.135,0,0,0,2.27-.01Z" fill="#373e54"/>
      <g id="그룹_1744" data-name="그룹 1744">
        <path id="패스_617" data-name="패스 617" d="M475.1,496.619H468.37a.75.75,0,0,1,0-1.5H475.1a.75.75,0,0,1,0,1.5Z" fill="#373e54"/>
      </g>
    </g>
    <rect id="사각형_1696" data-name="사각형 1696" width="20" height="20" transform="translate(250 253)" fill="none"/>
  </g>
</svg>
