<svg xmlns="http://www.w3.org/2000/svg" width="20.008" height="20.008" viewBox="0 0 20.008 20.008">
  <g id="ic_house_error" transform="translate(-249.992 -149)">
    <g id="그룹_1737" data-name="그룹 1737" transform="translate(-144.067 -257.322)">
      <g id="그룹_1733" data-name="그룹 1733" transform="translate(400.418 407.322)">
        <path id="패스_599" data-name="패스 599" d="M401.455,408.3a.456.456,0,0,1-.211-.045.425.425,0,0,1-.22-.268.6.6,0,0,1-.026-.172.573.573,0,0,1,.026-.169.494.494,0,0,1,.079-.158.389.389,0,0,1,.14-.118.456.456,0,0,1,.211-.046h2.114a1.069,1.069,0,0,1,.408.071.5.5,0,0,1,.256.217.706.706,0,0,1,.062.163.571.571,0,0,1,.011.2.871.871,0,0,1-.065.241,1.534,1.534,0,0,1-.16.282l-1.724,2.372h1.556a.444.444,0,0,1,.355.159.436.436,0,0,1,.082.151.573.573,0,0,1,.025.17.6.6,0,0,1-.025.172.5.5,0,0,1-.082.16.417.417,0,0,1-.144.118.463.463,0,0,1-.211.045h-2.255a1.1,1.1,0,0,1-.406-.067.513.513,0,0,1-.26-.22.79.79,0,0,1-.059-.147.546.546,0,0,1-.017-.194.9.9,0,0,1,.06-.245,1.273,1.273,0,0,1,.169-.3l1.731-2.373Z" transform="translate(-400.915 -407.322)" fill="#242939"/>
      </g>
      <path id="패스_600" data-name="패스 600" d="M404.165,409.867l-6.835,5.316a1.367,1.367,0,0,0-.528,1.079v8.9a1.367,1.367,0,0,0,1.367,1.367h13.67a1.367,1.367,0,0,0,1.367-1.367v-8.9a1.368,1.368,0,0,0-.528-1.079l-6.835-5.316A1.367,1.367,0,0,0,404.165,409.867Z" transform="translate(-0.132 -0.2)" fill="#d5d7e2"/>
      <g id="그룹_1734" data-name="그룹 1734" transform="translate(400.039 417.712)">
        <path id="패스_601" data-name="패스 601" d="M401.072,418.988a.285.285,0,0,0-.569,0,1.951,1.951,0,0,0,.462,1.4,1.885,1.885,0,0,0,1.384.676v-.8A1.352,1.352,0,0,1,401.072,418.988Z" transform="translate(-400.499 -418.722)" fill="#273043"/>
        <path id="패스_602" data-name="패스 602" d="M404.072,418.723a.288.288,0,0,0-.265.265,1.354,1.354,0,0,1-1.277,1.277v.8a1.889,1.889,0,0,0,1.384-.676,1.959,1.959,0,0,0,.462-1.4A.287.287,0,0,0,404.072,418.723Z" transform="translate(-400.679 -418.722)" fill="#273043"/>
      </g>
      <g id="그룹_1735" data-name="그룹 1735" transform="translate(406.002 417.712)">
        <path id="패스_603" data-name="패스 603" d="M407.616,418.988a.285.285,0,0,0-.57,0,1.959,1.959,0,0,0,.462,1.4,1.889,1.889,0,0,0,1.384.676v-.8A1.352,1.352,0,0,1,407.616,418.988Z" transform="translate(-407.042 -418.722)" fill="#273043"/>
        <path id="패스_604" data-name="패스 604" d="M410.616,418.723a.287.287,0,0,0-.265.265,1.355,1.355,0,0,1-1.278,1.277v.8a1.885,1.885,0,0,0,1.384-.676,1.951,1.951,0,0,0,.462-1.4A.286.286,0,0,0,410.616,418.723Z" transform="translate(-407.222 -418.722)" fill="#273043"/>
      </g>
      <ellipse id="타원_206" data-name="타원 206" cx="1.237" cy="1.323" rx="1.237" ry="1.323" transform="translate(403.635 421.429)" fill="#273043"/>
      <g id="그룹_1738" data-name="그룹 1738" transform="translate(21.132 -0.622)">
        <path id="패스_598" data-name="패스 598" d="M373.977,412.207a.667.667,0,0,1-.313-.067.625.625,0,0,1-.209-.166.644.644,0,0,1-.116-.229.881.881,0,0,1-.038-.255.839.839,0,0,1,.038-.25.739.739,0,0,1,.116-.233.58.58,0,0,1,.209-.175.68.68,0,0,1,.313-.067H377.1a1.576,1.576,0,0,1,.6.1.744.744,0,0,1,.379.32,1.086,1.086,0,0,1,.092.242.842.842,0,0,1,.016.3,1.267,1.267,0,0,1-.1.354,2.183,2.183,0,0,1-.238.417l-2.549,3.508h2.3a.652.652,0,0,1,.526.233.661.661,0,0,1,.12.225.867.867,0,0,1,.038.25.91.91,0,0,1-.038.254.732.732,0,0,1-.12.238.642.642,0,0,1-.213.175.683.683,0,0,1-.313.066h-3.333a1.632,1.632,0,0,1-.6-.1.767.767,0,0,1-.383-.326,1.156,1.156,0,0,1-.088-.216.8.8,0,0,1-.024-.287,1.282,1.282,0,0,1,.087-.363,1.868,1.868,0,0,1,.25-.442l2.558-3.508Z" fill="#242939" stroke="#242939" stroke-width="0.5"/>
      </g>
    </g>
    <rect id="사각형_1692" data-name="사각형 1692" width="20" height="20" transform="translate(250 149)" fill="none"/>
  </g>
</svg>
