<svg xmlns="http://www.w3.org/2000/svg" width="20" height="20" viewBox="0 0 20 20">
  <g id="ic_house_normal" transform="translate(-147 -149)">
    <g id="그룹_1740" data-name="그룹 1740" transform="translate(-271.244 -259.919)">
      <path id="패스_600" data-name="패스 600" d="M427.407,412.207l-6.835,5.316a1.364,1.364,0,0,0-.528,1.079v8.9a1.367,1.367,0,0,0,1.367,1.367h13.67a1.367,1.367,0,0,0,1.367-1.367h0v-8.9a1.37,1.37,0,0,0-.528-1.079l-6.835-5.316A1.366,1.366,0,0,0,427.407,412.207Z" fill="#21dcb0"/>
      <g id="그룹_1739" data-name="그룹 1739">
        <path id="패스_605" data-name="패스 605" d="M426.544,420.183a1.135,1.135,0,0,0-1.135-1.135h0a1.135,1.135,0,1,0,1.139,1.135Z" fill="#383f56"/>
        <path id="패스_606" data-name="패스 606" d="M432.543,422.822h-8.6a.6.6,0,0,0-.06,0,.513.513,0,0,0-.447.57,4.589,4.589,0,0,0,4.55,4.011h.509a4.588,4.588,0,0,0,4.55-4.012c0-.021,0-.042,0-.063A.511.511,0,0,0,432.543,422.822Z" fill="#383f56"/>
        <path id="패스_607" data-name="패스 607" d="M432.222,420.178a1.135,1.135,0,0,0-2.27.005v0a1.135,1.135,0,1,0,2.27-.01Z" fill="#383f56"/>
      </g>
    </g>
    <rect id="사각형_1693" data-name="사각형 1693" width="20" height="20" transform="translate(147 149)" fill="none"/>
  </g>
</svg>
