<svg xmlns="http://www.w3.org/2000/svg" width="20" height="20" viewBox="0 0 20 20">
  <g id="ic_house_danger" transform="translate(-147 -253)">
    <g id="그룹_1743" data-name="그룹 1743" transform="translate(-230.088 -229.144)">
      <path id="패스_600" data-name="패스 600" d="M386.251,485.456l-6.835,5.316a1.367,1.367,0,0,0-.528,1.079v8.9a1.367,1.367,0,0,0,1.367,1.367h13.67a1.367,1.367,0,0,0,1.367-1.367h0v-8.9a1.367,1.367,0,0,0-.528-1.079l-6.835-5.316A1.369,1.369,0,0,0,386.251,485.456Z" fill="#ffba44"/>
      <path id="패스_612" data-name="패스 612" d="M385.388,493.432a1.135,1.135,0,0,0-1.135-1.134h0a1.134,1.134,0,1,0,1.139,1.134Z" fill="#373e54"/>
      <path id="패스_613" data-name="패스 613" d="M391.066,493.427a1.135,1.135,0,0,0-2.27.005v.005a1.135,1.135,0,0,0,2.27-.01Z" fill="#373e54"/>
      <path id="패스_614" data-name="패스 614" d="M389.7,498.222a6.535,6.535,0,0,0-5.216,0l-.1.049a.511.511,0,0,1-.7-.651,2.887,2.887,0,0,1,1.471-1.439,4.573,4.573,0,0,1,3.872,0,2.887,2.887,0,0,1,1.471,1.439.511.511,0,0,1-.7.652Z" fill="#373e54"/>
    </g>
    <rect id="사각형_1697" data-name="사각형 1697" width="20" height="20" transform="translate(147 253)" fill="none"/>
  </g>
</svg>
