<svg xmlns="http://www.w3.org/2000/svg" width="38" height="38" viewBox="0 0 38 38">
  <g id="rate_75" transform="translate(-1486 -3838)">
    <g id="그룹_243" data-name="그룹 243" transform="translate(1008.575 3475)">
      <g id="타원_17" data-name="타원 17" transform="translate(477.425 363)" fill="none" stroke="#eaeaea" stroke-miterlimit="10" stroke-width="3.8">
        <circle cx="19" cy="19" r="19" stroke="none"/>
        <circle cx="19" cy="19" r="17.1" fill="none"/>
      </g>
      <g id="그룹_242" data-name="그룹 242">
        <path id="패스_260" data-name="패스 260" d="M496.424,401a19.066,19.066,0,0,1-16.444-9.505,1.9,1.9,0,0,1,3.289-1.9A15.188,15.188,0,1,0,496.424,366.8a1.9,1.9,0,1,1,0-3.8,19,19,0,1,1,0,38Z" fill="#74d47c"/>
      </g>
    </g>
    <path id="thunder" d="M120.845,6.173a.493.493,0,0,0-.415-.226h-3.469V.5a.5.5,0,0,0-.949-.2l-3.965,8.921a.5.5,0,0,0,.453.7h3.469v5.452a.5.5,0,0,0,.393.485.528.528,0,0,0,.1.011.5.5,0,0,0,.453-.294l3.965-8.921A.5.5,0,0,0,120.845,6.173Z" transform="translate(1388.495 3849)" fill="#74d47c"/>
  </g>
</svg>
