<svg xmlns="http://www.w3.org/2000/svg" width="38" height="38" viewBox="0 0 38 38">
  <g id="run_stop" transform="translate(-1372 -3766)">
    <g id="power" transform="translate(1336.6 3730.8)">
      <path id="패스_251" data-name="패스 251" d="M54.421,101.22a6.446,6.446,0,0,1-4.113-11.388.679.679,0,0,1,.87,1.043,5.079,5.079,0,1,0,6.46,0,.679.679,0,1,1,.864-1.048,6.428,6.428,0,0,1-4.08,11.389Z" transform="translate(0 -40.377)" fill="#ffc06d" stroke="#ffc06d" stroke-width="0.5"/>
      <path id="패스_252" data-name="패스 252" d="M234.679,54.915a.679.679,0,0,1-.679-.679V48.679a.679.679,0,1,1,1.358,0v5.557A.679.679,0,0,1,234.679,54.915Z" transform="translate(-180.258)" fill="#ffc06d" stroke="#ffc06d" stroke-width="0.5"/>
    </g>
    <g id="패스_253" data-name="패스 253" transform="translate(1372 3766)" fill="none">
      <path d="M19,0A19,19,0,1,1,0,19,19,19,0,0,1,19,0Z" stroke="none"/>
      <path d="M 19 3.799999237060547 C 14.9399299621582 3.799999237060547 11.12288093566895 5.381080627441406 8.251979827880859 8.251979827880859 C 5.381080627441406 11.12288093566895 3.799999237060547 14.9399299621582 3.799999237060547 19 C 3.799999237060547 23.0600700378418 5.381080627441406 26.87712097167969 8.251979827880859 29.74802017211914 C 11.12288093566895 32.61891937255859 14.9399299621582 34.20000076293945 19 34.20000076293945 C 23.0600700378418 34.20000076293945 26.87712097167969 32.61891937255859 29.74802017211914 29.74802017211914 C 32.61891937255859 26.87712097167969 34.20000076293945 23.0600700378418 34.20000076293945 19 C 34.20000076293945 14.9399299621582 32.61891937255859 11.12288093566895 29.74802017211914 8.251979827880859 C 26.87712097167969 5.381080627441406 23.0600700378418 3.799999237060547 19 3.799999237060547 M 19 0 C 29.49341011047363 0 38 8.506589889526367 38 19 C 38 29.49341011047363 29.49341011047363 38 19 38 C 8.506589889526367 38 0 29.49341011047363 0 19 C 0 8.506589889526367 8.506589889526367 0 19 0 Z" stroke="none" fill="#ffc06d"/>
    </g>
  </g>
</svg>
