<svg xmlns="http://www.w3.org/2000/svg" width="20" height="29" viewBox="0 0 20 29">
  <g id="bg_marker" transform="translate(-680 -741)">
    <g id="그룹_2014" data-name="그룹 2014" transform="translate(-990.906 509.912)">
      <path id="패스_706" data-name="패스 706" d="M5.649,111.378v-6.3a1.959,1.959,0,0,0-1.957-1.957H3.148A3.055,3.055,0,0,0,.92,104.638a10.064,10.064,0,0,0-.861,1.38.559.559,0,0,0-.059.25v2.589a.559.559,0,1,0,1.118,0V106.4a6.553,6.553,0,0,1,1.47-1.918v3.68a3.091,3.091,0,0,0,.429,1.575.555.555,0,0,0,.041.06l1.524,1.947L6.53,115.68a.559.559,0,0,0,1-.5Z" transform="translate(1680.109 137.835)" fill="#25feed"/>
      <path id="패스_708" data-name="패스 708" d="M179.777,180.254l-2.854-1.891a.2.2,0,0,0-.3.167v.828a.74.74,0,0,0,.339.622l2.1,1.352a.647.647,0,0,0,.717-1.077" transform="translate(1509.662 65.252)" fill="#25feed"/>
      <path id="패스_709" data-name="패스 709" d="M44.857,359.6l-.014-.02a.259.259,0,0,0-.363-.052l-2.1,2.609a.673.673,0,0,0-.129.906.647.647,0,0,0,.518.259.516.516,0,0,0,.388-.129s1.538-2.008,1.817-2.357a.683.683,0,0,0,.059-.9c-.063-.12-.127-.229-.181-.318" transform="translate(1639.45 -109.566)" fill="#25feed"/>
      <path id="패스_710" data-name="패스 710" d="M102.154,3.148a1.574,1.574,0,1,0-1.574-1.574,1.576,1.576,0,0,0,1.574,1.574" transform="translate(1583.045 237.351)" fill="#25feed"/>
    </g>
    <rect id="사각형_720" data-name="사각형 720" width="20" height="29" transform="translate(680 741)" fill="none"/>
  </g>
</svg>
